<?xml version="1.0" encoding="UTF-8" standalone="no"?>
<svg
   xmlns:dc="http://purl.org/dc/elements/1.1/"
   xmlns:cc="http://creativecommons.org/ns#"
   xmlns:rdf="http://www.w3.org/1999/02/22-rdf-syntax-ns#"
   xmlns:svg="http://www.w3.org/2000/svg"
   xmlns="http://www.w3.org/2000/svg"
   xmlns:sodipodi="http://sodipodi.sourceforge.net/DTD/sodipodi-0.dtd"
   xmlns:inkscape="http://www.inkscape.org/namespaces/inkscape"
   width="544"
   height="372"
   version="1.1"
   id="svg334"
   sodipodi:docname="diagram.svg"
   inkscape:export-filename="/home/gballet/src/presentations/ethcc20/diagram.png"
   inkscape:export-xdpi="96"
   inkscape:export-ydpi="96"
   inkscape:version="0.92.3 (2405546, 2018-03-11)">
  <metadata
     id="metadata338">
    <rdf:RDF>
      <cc:Work
         rdf:about="">
        <dc:format>image/svg+xml</dc:format>
        <dc:type
           rdf:resource="http://purl.org/dc/dcmitype/StillImage" />
      </cc:Work>
    </rdf:RDF>
  </metadata>
  <sodipodi:namedview
     pagecolor="#ffffff"
     bordercolor="#666666"
     borderopacity="1"
     objecttolerance="10"
     gridtolerance="10"
     guidetolerance="10"
     inkscape:pageopacity="0"
     inkscape:pageshadow="2"
     inkscape:window-width="1920"
     inkscape:window-height="1010"
     id="namedview336"
     showgrid="false"
     inkscape:zoom="2.2016129"
     inkscape:cx="190.01465"
     inkscape:cy="186"
     inkscape:window-x="0"
     inkscape:window-y="34"
     inkscape:window-maximized="1"
     inkscape:current-layer="svg334" />
  <source><![CDATA[Participant Alice
Participant Alice's contract
Participant Bob's contract
Participant Bob
Alice->Alice's contract: send 10
Alice's contract->Bob's contract: send 5
Bob's contract->Alice's contract: send 2
Alice's contract->Bob's contract: send 1
Bob->Alice's contract: close
Alice's contract->Alice: refund]]></source>
  <desc
     id="desc202" />
  <defs
     id="defs210">
    <marker
       viewBox="0 0 5 5"
       markerWidth="5"
       markerHeight="5"
       orient="auto"
       refX="5"
       refY="2.5"
       id="markerArrowBlock">
      <path
         d="M 0 0 L 5 2.5 L 0 5 z"
         id="path204" />
    </marker>
    <marker
       viewBox="0 0 9.6 16"
       markerWidth="4"
       markerHeight="16"
       orient="auto"
       refX="9.6"
       refY="8"
       id="markerArrowOpen">
      <path
         d="M 9.6,8 1.92,16 0,13.7 5.76,8 0,2.286 1.92,0 9.6,8 z"
         id="path207" />
    </marker>
  </defs>
  <g
     class="title"
     id="g212" />
  <g
     class="actor"
     id="g220">
    <rect
       x="10"
       y="20"
       width="68"
       height="39"
       style="stroke-width: 2px;"
       stroke="#000000"
       fill="#ffffff"
       id="rect214" />
    <text
       x="20"
       y="45"
       style="font-size: 16px; font-family: Andale Mono, monospace;"
       id="text218">
      <tspan
         x="20"
         id="tspan216">Alice</tspan>
    </text>
  </g>
  <g
     class="actor"
     id="g228">
    <rect
       x="10"
       y="313"
       width="68"
       height="39"
       style="stroke-width: 2px;"
       stroke="#000000"
       fill="#ffffff"
       id="rect222" />
    <text
       x="20"
       y="338"
       style="font-size: 16px; font-family: Andale Mono, monospace;"
       id="text226">
      <tspan
         x="20"
         id="tspan224">Alice</tspan>
    </text>
  </g>
  <line
     x1="44"
     x2="44"
     y1="59"
     y2="313"
     style="stroke-width: 2px;"
     stroke="#000000"
     fill="none"
     id="line230" />
  <g
     class="actor"
     id="g238">
    <rect
       x="98"
       y="20"
       width="173.60000610351562"
       height="39"
       style="stroke-width: 2px;"
       stroke="#000000"
       fill="#ffffff"
       id="rect232" />
    <text
       x="108"
       y="45"
       style="font-size: 16px; font-family: Andale Mono, monospace;"
       id="text236">
      <tspan
         x="108"
         id="tspan234">Alice's contract</tspan>
    </text>
  </g>
  <g
     class="actor"
     id="g246">
    <rect
       x="98"
       y="313"
       width="173.60000610351562"
       height="39"
       style="stroke-width: 2px;"
       stroke="#000000"
       fill="#ffffff"
       id="rect240" />
    <text
       x="108"
       y="338"
       style="font-size: 16px; font-family: Andale Mono, monospace;"
       id="text244">
      <tspan
         x="108"
         id="tspan242">Alice's contract</tspan>
    </text>
  </g>
  <line
     x1="184.8000030517578"
     x2="184.8000030517578"
     y1="59"
     y2="313"
     style="stroke-width: 2px;"
     stroke="#000000"
     fill="none"
     id="line248" />
  <g
     class="actor"
     id="g256">
    <rect
       x="291.6000061035156"
       y="20"
       width="154.39999389648438"
       height="39"
       style="stroke-width: 2px;"
       stroke="#000000"
       fill="#ffffff"
       id="rect250" />
    <text
       x="301.6000061035156"
       y="45"
       style="font-size: 16px; font-family: Andale Mono, monospace;"
       id="text254">
      <tspan
         x="301.6000061035156"
         id="tspan252">Bob's contract</tspan>
    </text>
  </g>
  <g
     class="actor"
     id="g264">
    <rect
       x="291.6000061035156"
       y="313"
       width="154.39999389648438"
       height="39"
       style="stroke-width: 2px;"
       stroke="#000000"
       fill="#ffffff"
       id="rect258" />
    <text
       x="301.6000061035156"
       y="338"
       style="font-size: 16px; font-family: Andale Mono, monospace;"
       id="text262">
      <tspan
         x="301.6000061035156"
         id="tspan260">Bob's contract</tspan>
    </text>
  </g>
  <line
     x1="368.8000030517578"
     x2="368.8000030517578"
     y1="59"
     y2="313"
     style="stroke-width: 2px;"
     stroke="#000000"
     fill="none"
     id="line266" />
  <g
     class="actor"
     id="g274">
    <rect
       x="466"
       y="20"
       width="48.79999923706055"
       height="39"
       style="stroke-width: 2px;"
       stroke="#000000"
       fill="#ffffff"
       id="rect268" />
    <text
       x="476"
       y="45"
       style="font-size: 16px; font-family: Andale Mono, monospace;"
       id="text272">
      <tspan
         x="476"
         id="tspan270">Bob</tspan>
    </text>
  </g>
  <g
     class="actor"
     id="g282">
    <rect
       x="466"
       y="313"
       width="48.79999923706055"
       height="39"
       style="stroke-width: 2px;"
       stroke="#000000"
       fill="#ffffff"
       id="rect276" />
    <text
       x="476"
       y="338"
       style="font-size: 16px; font-family: Andale Mono, monospace;"
       id="text280">
      <tspan
         x="476"
         id="tspan278">Bob</tspan>
    </text>
  </g>
  <line
     x1="490.3999996185303"
     x2="490.3999996185303"
     y1="59"
     y2="313"
     style="stroke-width: 2px;"
     stroke="#000000"
     fill="none"
     id="line284" />
  <g
     class="signal"
     id="g292">
    <text
       x="80.80000305175781"
       y="89.5"
       style="font-size: 16px; font-family: Andale Mono, monospace;"
       id="text288">
      <tspan
         x="80.80000305175781"
         id="tspan286">send 10</tspan>
    </text>
    <line
       x1="44"
       x2="184.8000030517578"
       y1="98"
       y2="98"
       style="stroke-width: 2px; marker-end: url(&quot;#markerArrowBlock&quot;);"
       stroke="#000000"
       fill="none"
       id="line290" />
  </g>
  <g
     class="signal"
     id="g300">
    <text
       x="248.00000381469727"
       y="128.5"
       style="font-size: 16px; font-family: Andale Mono, monospace;"
       id="text296">
      <tspan
         x="248.00000381469727"
         id="tspan294">send 5</tspan>
    </text>
    <line
       x1="184.8000030517578"
       x2="368.8000030517578"
       y1="137"
       y2="137"
       style="stroke-width: 2px; marker-end: url(&quot;#markerArrowBlock&quot;);"
       stroke="#000000"
       fill="none"
       id="line298" />
  </g>
  <g
     class="signal"
     id="g308">
    <text
       x="248.00000381469727"
       y="167.5"
       style="font-size: 16px; font-family: Andale Mono, monospace;"
       id="text304">
      <tspan
         x="248.00000381469727"
         id="tspan302">send 2</tspan>
    </text>
    <line
       x1="368.8000030517578"
       x2="184.8000030517578"
       y1="176"
       y2="176"
       style="stroke-width: 2px; marker-end: url(&quot;#markerArrowBlock&quot;);"
       stroke="#000000"
       fill="none"
       id="line306" />
  </g>
  <g
     class="signal"
     id="g316">
    <text
       x="248.00000381469727"
       y="206.5"
       style="font-size: 16px; font-family: Andale Mono, monospace;"
       id="text312">
      <tspan
         x="248.00000381469727"
         id="tspan310">send 1</tspan>
    </text>
    <line
       x1="184.8000030517578"
       x2="368.8000030517578"
       y1="215"
       y2="215"
       style="stroke-width: 2px; marker-end: url(&quot;#markerArrowBlock&quot;);"
       stroke="#000000"
       fill="none"
       id="line314" />
  </g>
  <g
     class="signal"
     id="g324">
    <text
       x="313.60000133514404"
       y="245.5"
       style="font-size: 16px; font-family: Andale Mono, monospace;"
       id="text320">
      <tspan
         x="313.60000133514404"
         id="tspan318">close</tspan>
    </text>
    <line
       x1="490.3999996185303"
       x2="184.8000030517578"
       y1="254"
       y2="254"
       style="stroke-width: 2px; marker-end: url(&quot;#markerArrowBlock&quot;);"
       stroke="#000000"
       fill="none"
       id="line322" />
  </g>
  <g
     class="signal"
     id="g332">
    <text
       x="85.60000228881836"
       y="284.5"
       style="font-size: 16px; font-family: Andale Mono, monospace;"
       id="text328">
      <tspan
         x="85.60000228881836"
         id="tspan326">refund</tspan>
    </text>
    <line
       x1="184.8000030517578"
       x2="44"
       y1="293"
       y2="293"
       style="stroke-width: 2px; marker-end: url(&quot;#markerArrowBlock&quot;);"
       stroke="#000000"
       fill="none"
       id="line330" />
  </g>
  <path
     style="fill:#ffffff;stroke-width:0.45421246"
     d="M 45.120879,195.44762 V 99.154579 h 64.725271 64.72528 v 2.043951 c 0,1.12418 0.10628,2.04396 0.23618,2.04396 0.1299,0 2.06758,-0.91978 4.30594,-2.04396 2.23837,-1.12417 4.17605,-2.043951 4.30595,-2.043951 0.1299,0 0.23618,43.331871 0.23618,96.293041 v 96.29304 H 118.9304 54.205128 v -2.04852 -2.04851 l -4.078836,2.04851 c -2.243359,1.12669 -4.287316,2.04852 -4.542124,2.04852 -0.313453,0 -0.463289,-31.14286 -0.463289,-96.29304 z m 44.425107,86.4988 c 0.160456,-3.08741 1.029292,-4.39793 2.78024,-4.19361 0.783048,0.0914 1.198712,-0.10752 1.299238,-0.62169 0.181308,-0.92742 -1.327,-1.48103 -2.74268,-1.00668 -0.562088,0.18834 -1.481868,0.28968 -2.043956,0.22521 -0.992095,-0.1138 -1.021978,9.1e-4 -1.021978,3.92749 0,2.22459 0.140522,4.18524 0.312271,4.35699 0.770201,0.7702 1.288227,-0.21246 1.416865,-2.68771 z m 12.995614,2.70535 c 0.39516,-0.15163 0.71847,-0.58597 0.71847,-0.9652 0,-0.53179 -0.32867,-0.62377 -1.43699,-0.4021 -1.60416,0.32083 -3.559344,-0.65368 -3.559344,-1.77406 0,-0.51712 0.624524,-0.67085 2.725274,-0.67085 2.92895,0 3.13662,-0.22158 2.29133,-2.44484 -0.99549,-2.61836 -3.9796,-3.17239 -5.912456,-1.09771 -1.055472,1.13291 -1.259722,4.65773 -0.338788,5.84658 1.197963,1.54647 3.658464,2.21964 5.512504,1.50818 z m 7.43721,-3.508 0.13266,-3.4837 h 1.34353 c 0.89144,0 1.34353,-0.22926 1.34353,-0.68132 0,-0.45782 -0.45791,-0.68131 -1.39594,-0.68131 -1.08938,0 -1.35978,-0.17456 -1.23128,-0.79488 0.11381,-0.54941 0.54487,-0.76846 1.39594,-0.70936 0.94482,0.0656 1.23128,-0.11931 1.23128,-0.79487 0,-0.69187 -0.31609,-0.87889 -1.47619,-0.87343 -1.89622,0.009 -2.46729,0.39498 -2.85205,1.928 -0.20277,0.80787 -0.61382,1.24454 -1.17155,1.24454 -0.47254,0 -0.85918,0.30659 -0.85918,0.68131 0,0.37851 0.40375,0.68132 0.90843,0.68132 0.82584,0 0.90842,0.30281 0.90842,3.33089 0,1.832 0.14052,3.47142 0.31227,3.64317 0.83019,0.83019 1.28884,-0.30506 1.41013,-3.49036 z m 10.11698,3.31351 c 0.60562,-0.32412 0.87857,-0.32412 0.87857,0 0,0.25861 0.30659,0.47019 0.68132,0.47019 0.5578,0 0.68132,-0.78225 0.68132,-4.31502 0,-3.53276 -0.12352,-4.31501 -0.68132,-4.31501 -0.53549,0 -0.68132,0.62968 -0.68132,2.94191 0,2.63839 -0.11739,3.01882 -1.13781,3.68743 -1.82379,1.19499 -2.49589,0.25103 -2.49589,-3.50547 0,-2.47397 -0.14175,-3.12387 -0.68132,-3.12387 -1.00753,0 -0.97923,6.9046 0.0324,7.91627 0.82367,0.82367 2.1436,0.91812 3.40401,0.24357 z m 6.78333,-2.71903 c 0,-2.9388 0.0869,-3.22882 1.10657,-3.69341 2.06737,-0.94196 2.52713,-0.3061 2.52713,3.49509 0,3.04459 0.0942,3.43618 0.79487,3.3026 0.64393,-0.12278 0.82003,-0.71778 0.92737,-3.1334 0.0729,-1.64001 -0.0732,-3.52285 -0.3246,-4.18409 -0.59086,-1.55409 -2.38446,-2.03254 -3.89912,-1.0401 -0.62272,0.40803 -1.13222,0.53275 -1.13222,0.27718 0,-0.25558 -0.30659,-0.46468 -0.68132,-0.46468 -0.5578,0 -0.68132,0.78225 -0.68132,4.31501 0,3.53277 0.12352,4.31502 0.68132,4.31502 0.54093,0 0.68132,-0.65717 0.68132,-3.18922 z m 12.2485,2.75404 c 0.42504,-0.26882 0.88404,-0.24039 1.26834,0.0785 1.18763,0.98565 1.50351,-0.34982 1.37369,-5.80752 -0.11248,-4.72864 -0.22838,-5.4264 -0.9235,-5.55963 -0.65276,-0.1251 -0.79487,0.1813 -0.79487,1.71379 0,1.70425 -0.0762,1.82535 -0.87856,1.39595 -1.36429,-0.73015 -2.24685,-0.56557 -3.4571,0.64469 -0.88099,0.88099 -1.11489,1.58282 -1.11489,3.34534 0,3.5211 2.26657,5.61841 4.52689,4.18884 z"
     id="path342"
     inkscape:connector-curvature="0" />
  <path
     style="fill:#ffffff;stroke-width:0.45421246"
     d="m 185.92674,234.50989 v -18.1685 h 86.30037 86.30036 v 1.81685 c 0,0.99927 0.20894,1.81685 0.4643,1.81685 0.25536,0 2.09038,-0.81758 4.07783,-1.81685 1.98744,-0.99927 3.82246,-1.81685 4.07783,-1.81685 0.30851,0 0.46429,6.09595 0.46429,18.1685 v 18.1685 h -86.30036 -86.30037 v -1.81685 c 0,-0.99927 -0.20893,-1.81685 -0.4643,-1.81685 -0.25536,0 -2.09038,0.81758 -4.07783,1.81685 -1.98744,0.99927 -3.82246,1.81685 -4.07783,1.81685 -0.30851,0 -0.46429,-6.09595 -0.46429,-18.1685 z M 321.0178,245.5895 c 0.39516,-0.15164 0.71846,-0.56284 0.71846,-0.91379 0,-0.48337 -0.41449,-0.57181 -1.70945,-0.36474 -2.06045,0.32948 -3.43829,-0.86052 -3.43829,-2.96955 0,-1.90649 0.88653,-2.74362 2.90549,-2.74362 1.62819,0 2.67277,-0.62932 2.06063,-1.24145 -0.14992,-0.14992 -1.22472,-0.27259 -2.38843,-0.27259 -1.73972,0 -2.30492,0.21982 -3.17949,1.23656 -1.1868,1.37974 -1.4486,4.51247 -0.48143,5.761 1.19796,1.54647 3.65846,2.21964 5.51251,1.50818 z m 9.80271,-0.63272 c 0,-0.66618 -0.30281,-0.90843 -1.13553,-0.90843 h -1.13553 v -4.99634 -4.99633 h -1.81685 c -1.51404,0 -1.81685,0.1514 -1.81685,0.90842 0,0.66618 0.30281,0.90843 1.13553,0.90843 h 1.13553 v 4.99633 4.99634 h 1.81685 c 1.51404,0 1.81685,-0.1514 1.81685,-0.90842 z m 9.332,-0.20646 c 0.87976,-0.87976 1.11184,-1.57427 1.10045,-3.29304 -0.008,-1.19799 -0.2801,-2.52782 -0.60479,-2.95517 -1.72239,-2.26706 -5.38174,-1.78049 -6.48602,0.8624 -1.85549,4.44083 2.77351,8.60266 5.99036,5.38581 z m 9.18965,0.40781 c 0.65649,-0.45983 1.00949,-1.17712 1.00949,-2.05131 0,-1.32798 -0.84074,-1.97231 -3.74725,-2.87186 -0.43718,-0.13531 -0.79488,-0.55902 -0.79488,-0.94158 0,-0.52158 0.5113,-0.69558 2.04396,-0.69558 2.38065,0 2.88225,-1.08142 0.70369,-1.51714 -4.51415,-0.90282 -6.30731,3.94238 -1.82351,4.92719 0.70629,0.15512 1.51587,0.56125 1.79908,0.90249 0.7144,0.8608 -1.04449,1.76899 -2.76109,1.42567 -0.71608,-0.14321 -1.42425,-0.0399 -1.59245,0.23221 -0.8041,1.30107 3.45317,1.78749 5.16296,0.58991 z m 10.47251,-0.36023 c 0.13717,-0.72254 -0.0398,-0.79642 -1.26362,-0.52762 -1.59343,0.34998 -3.65728,-0.67828 -3.65728,-1.82214 0,-0.51712 0.62453,-0.67085 2.72528,-0.67085 2.40058,0 2.72527,-0.10569 2.72527,-0.88705 0,-2.78368 -2.55454,-4.67628 -4.83555,-3.58257 -2.71129,1.30002 -3.27022,5.06376 -1.07762,7.25636 1.14846,1.14846 1.64822,1.33294 3.28912,1.21415 1.4563,-0.10544 1.97435,-0.34791 2.0944,-0.98028 z"
     id="path344"
     inkscape:connector-curvature="0" />
  <path
     style="fill:#ffffff;stroke-width:0.45421246"
     d="m 185.92674,195.44762 c 0,-12.07255 0.15578,-18.1685 0.46429,-18.1685 0.25537,0 2.09039,0.81758 4.07783,1.81685 1.98745,0.99927 3.82247,1.81685 4.07783,1.81685 0.25537,0 0.4643,-0.81758 0.4643,-1.81685 v -1.81685 h 86.30037 86.30036 v 18.1685 c 0,12.07255 -0.15578,18.1685 -0.46429,18.1685 -0.25537,0 -2.09039,-0.81759 -4.07783,-1.81685 -1.98745,-0.99927 -3.82247,-1.81685 -4.07783,-1.81685 -0.25536,0 -0.4643,0.81758 -0.4643,1.81685 v 1.81685 h -86.30036 -86.30037 z m 69.11808,10.60359 c 0.45685,-0.41344 0.83064,-1.33653 0.83064,-2.0513 0,-1.28291 -0.85543,-1.92515 -3.78503,-2.84172 -1.42929,-0.44717 -0.54853,-1.38898 1.43571,-1.53522 1.28361,-0.0946 1.89511,-0.35109 1.89511,-0.79487 0,-0.96109 -3.98933,-0.88521 -5.07413,0.0965 -1.58223,1.4319 -0.62219,3.37493 1.98956,4.02669 2.90849,0.72581 2.24018,2.83937 -0.74465,2.355 -1.05844,-0.17176 -1.62385,-0.0604 -1.78171,0.351 -0.35145,0.91585 0.12147,1.14563 2.35782,1.14563 1.26646,0 2.36254,-0.28642 2.87668,-0.75172 z m 10.27727,-0.23048 c 0.11959,-0.63097 -0.14958,-0.71583 -1.63754,-0.51625 -1.50128,0.20136 -1.89725,0.0724 -2.52381,-0.82217 -0.40874,-0.58355 -0.74316,-1.21991 -0.74316,-1.41414 0,-0.19424 1.22638,-0.35315 2.72528,-0.35315 2.68465,0 2.72527,-0.019 2.72527,-1.27699 0,-1.73222 -1.51503,-3.26514 -3.22704,-3.26514 -1.99687,0 -2.98982,0.6913 -3.58551,2.49626 -1.13728,3.44598 0.882,6.29267 4.28585,6.042 1.2824,-0.0944 1.88078,-0.36345 1.98066,-0.89042 z m 5.18182,-2.26325 c 0.13992,-3.40265 0.78881,-4.4777 2.34278,-3.88138 0.59692,0.22905 0.74305,0.95791 0.74305,3.70598 0,3.11804 0.0804,3.42085 0.90843,3.42085 0.82838,0 0.90842,-0.30281 0.90842,-3.43645 0,-4.83511 -0.25449,-5.17133 -3.86778,-5.10975 l -2.9454,0.0502 v 4.248 c 0,3.91349 0.07,4.24801 0.88852,4.24801 0.78654,0 0.90384,-0.37252 1.02198,-3.24545 z m 14.44114,-2.49652 c 0,-5.31053 -0.049,-5.61334 -0.90842,-5.61334 -0.72358,0 -0.90842,0.30281 -0.90842,1.48819 0,1.44715 -0.0472,1.48369 -1.7123,1.3249 -2.44438,-0.23311 -3.51115,1.05122 -3.51115,4.2272 0,3.42302 0.87838,4.27376 4.36159,4.22438 l 2.6787,-0.038 z m 19.07693,4.83355 c 0,-0.66618 -0.30281,-0.90843 -1.13553,-0.90843 h -1.13553 v -4.99634 c 0,-2.74798 -0.10877,-4.99633 -0.2417,-4.99633 -0.13293,0 -0.95051,0.29616 -1.81685,0.65814 -1.08373,0.45281 -1.57515,0.95377 -1.57515,1.60572 0,0.7961 0.14045,0.87242 0.87856,0.47739 0.48321,-0.2586 0.9942,-0.47019 1.13553,-0.47019 0.14133,0 0.25697,1.73736 0.25697,3.8608 0,3.81539 -0.0134,3.86081 -1.13553,3.86081 -0.83272,0 -1.13553,0.24225 -1.13553,0.90843 0,0.81525 0.30281,0.90842 2.95238,0.90842 2.64957,0 2.95238,-0.0932 2.95238,-0.90842 z"
     id="path346"
     inkscape:connector-curvature="0" />
  <path
     style="fill:#ffffff;stroke-width:0.45421246"
     d="m 185.92674,156.61245 v -18.3956 h 86.30037 86.30036 v 2.04851 2.04852 l 4.07884,-2.04852 c 2.24336,-1.12668 4.28732,-2.04851 4.54212,-2.04851 0.30729,0 0.46329,6.19442 0.46329,18.3956 v 18.39561 h -86.30036 -86.30037 v -2.04396 c 0,-1.12417 -0.10628,-2.04395 -0.23618,-2.04395 -0.1299,0 -2.06758,0.91978 -4.30595,2.04395 -2.23836,1.12418 -4.17604,2.04396 -4.30594,2.04396 -0.1299,0 -0.23618,-8.27802 -0.23618,-18.39561 z m 69.25948,10.38992 c 0.44664,-0.44664 0.68375,-1.29494 0.60021,-2.14736 -0.11869,-1.21122 -0.42507,-1.51469 -2.18203,-2.16131 -2.63227,-0.96877 -2.68435,-1.947 -0.11356,-2.133 1.31436,-0.0951 1.93041,-0.34877 1.93041,-0.79487 0,-0.9611 -3.98933,-0.88522 -5.07413,0.0965 -1.58223,1.4319 -0.62219,3.37493 1.98956,4.02669 3.05164,0.76153 2.52453,2.7023 -0.63225,2.32783 -1.56788,-0.18599 -2.59696,0.50916 -1.85384,1.25229 0.60546,0.60546 4.61408,0.25477 5.33563,-0.46678 z m 10.2277,-0.0686 c 0,-0.66318 -0.31367,-0.77696 -1.76138,-0.6389 -1.43589,0.13694 -1.89754,-0.0264 -2.49817,-0.88393 -0.40524,-0.57855 -0.73679,-1.21082 -0.73679,-1.40506 0,-0.19423 1.22638,-0.35314 2.72528,-0.35314 2.65436,0 2.72527,-0.0317 2.72527,-1.21981 0,-2.52516 -3.06777,-4.14333 -5.44403,-2.87159 -1.09173,0.58427 -1.99435,3.34445 -1.60578,4.91039 0.5506,2.2189 1.96513,3.26892 4.40371,3.26892 1.79713,0 2.19189,-0.14532 2.19189,-0.80688 z m 4.99634,-2.35663 c 0,-2.73829 0.12687,-3.2314 0.94391,-3.66867 1.79098,-0.9585 2.23557,-0.28009 2.23557,3.41133 0,3.11804 0.0804,3.42085 0.90843,3.42085 0.82838,0 0.90842,-0.30281 0.90842,-3.43645 0,-4.83511 -0.25449,-5.17133 -3.86778,-5.10975 l -2.9454,0.0502 v 4.248 c 0,3.9452 0.0648,4.24801 0.90842,4.24801 0.82147,0 0.90843,-0.30281 0.90843,-3.16351 z m 14.53479,-2.56297 c 0,-5.32602 -0.0489,-5.62883 -0.90842,-5.62883 -0.72358,0 -0.90842,0.30281 -0.90842,1.48819 0,1.44715 -0.0472,1.48369 -1.7123,1.3249 -2.44438,-0.23311 -3.51115,1.05121 -3.51115,4.2272 0,3.42867 0.89988,4.30381 4.37519,4.25489 l 2.6651,-0.0375 z m 19.07693,5.04516 c 0,-0.51519 -0.55633,-0.68132 -2.28162,-0.68132 h -2.28163 l 1.82973,-2.31478 c 2.75737,-3.48834 3.01533,-5.73489 0.84394,-7.34987 -1.49232,-1.10991 -4.46902,-0.78531 -4.46998,0.48743 -4.6e-4,0.60762 0.41292,0.77429 1.92047,0.77429 1.49874,0 1.95704,0.18264 2.08476,0.8308 0.29322,1.488 -0.32978,2.8962 -2.4123,5.45272 -1.12561,1.38179 -2.04656,2.73054 -2.04656,2.9972 0,0.30056 1.29484,0.48485 3.40659,0.48485 2.72528,0 3.4066,-0.13626 3.4066,-0.68132 z"
     id="path348"
     inkscape:connector-curvature="0"
     inkscape:export-xdpi="96"
     inkscape:export-ydpi="96" />
  <path
     style="fill:#ffffff;stroke-width:0.45421246"
     d="M 45.120879,195.44762 V 99.154579 h 64.700391 64.70039 l 0.13844,2.062731 0.13843,2.06274 4.23251,-2.06274 c 2.32787,-1.1345 4.32073,-2.062731 4.42857,-2.062731 0.10784,0 0.19607,43.331871 0.19607,96.293041 v 96.29304 H 118.9304 54.205128 v -2.04852 -2.04851 l -4.078836,2.04851 c -2.243359,1.12669 -4.287316,2.04852 -4.542124,2.04852 -0.313453,0 -0.463289,-31.14286 -0.463289,-96.29304 z M 89.6337,281.61458 c 0,-2.69525 0.890242,-3.95451 2.795673,-3.95451 0.818831,0 1.292239,-0.23838 1.292239,-0.65071 0,-0.84339 -1.534857,-1.32184 -2.838828,-0.88492 -0.562088,0.18834 -1.481868,0.28968 -2.043956,0.22521 -0.992095,-0.1138 -1.021978,9.1e-4 -1.021978,3.92749 0,2.22459 0.13449,4.17921 0.298868,4.34358 0.722552,0.72256 1.517982,-0.85268 1.517982,-3.00614 z m 12.9079,3.03719 c 0.39516,-0.15163 0.71847,-0.57667 0.71847,-0.94451 0,-0.50882 -0.3304,-0.59625 -1.38109,-0.36547 -1.53762,0.33771 -3.615244,-0.70173 -3.615244,-1.80872 0,-0.47048 0.71598,-0.68552 2.611724,-0.7844 2.59358,-0.13527 2.61105,-0.14568 2.51512,-1.49885 -0.10965,-1.54684 -1.94957,-3.4066 -3.37026,-3.4066 -0.50492,0 -1.515501,0.59747 -2.245734,1.3277 -3.45544,3.45544 0.221247,9.22523 4.767014,7.48085 z m 7.53166,-3.86782 v -3.12388 h 1.36264 c 0.90842,0 1.36263,-0.2271 1.36263,-0.68132 0,-0.45782 -0.45791,-0.68131 -1.39594,-0.68131 -1.0857,0 -1.3615,-0.17666 -1.24096,-0.79488 0.0972,-0.49876 0.57496,-0.79807 1.28239,-0.80345 0.68908,-0.005 1.12741,-0.27015 1.12741,-0.68132 0,-0.46603 -0.48847,-0.67274 -1.58975,-0.67274 -1.34786,0 -1.6934,0.22311 -2.27106,1.46637 -0.38282,0.82392 -1.02956,1.47066 -1.47619,1.47619 -0.43718,0.005 -0.79487,0.31642 -0.79487,0.69114 0,0.37851 0.40375,0.68132 0.90843,0.68132 0.82584,0 0.90842,0.30281 0.90842,3.33089 0,3.55487 0.23734,4.22774 1.20729,3.42274 0.40181,-0.33347 0.60956,-1.57055 0.60956,-3.62975 z m 9.71992,3.70667 c 0.74225,-0.28221 1.24622,-0.27958 1.42359,0.007 0.69968,1.1321 1.12023,-0.42193 1.12023,-4.13948 0,-3.30706 -0.12651,-4.0611 -0.68132,-4.0611 -0.53549,0 -0.68132,0.62968 -0.68132,2.94191 0,2.63839 -0.11739,3.01882 -1.13781,3.68743 -1.82379,1.19499 -2.49589,0.25103 -2.49589,-3.50547 0,-2.47397 -0.14175,-3.12387 -0.68132,-3.12387 -0.54833,0 -0.68132,0.70294 -0.68132,3.60125 0,4.68711 0.85575,5.71709 3.81516,4.59193 z m 7.08594,-3.00629 c 0,-2.66973 0.10012,-2.98093 1.10657,-3.43949 2.01887,-0.91986 2.52713,-0.28453 2.52713,3.15898 0,3.34754 0.24775,4.00624 1.20729,3.20988 0.649,-0.53862 0.81405,-3.80076 0.31784,-6.28181 -0.40333,-2.01666 -2.04773,-2.7538 -3.84373,-1.72304 -0.72331,0.41512 -1.3151,0.55987 -1.3151,0.32167 0,-0.2382 -0.30659,-0.43308 -0.68132,-0.43308 -0.5542,0 -0.68132,0.74861 -0.68132,4.0122 0,2.20672 0.13071,4.14292 0.29046,4.30268 0.69676,0.69675 1.07218,-0.39852 1.07218,-3.12799 z m 12.2485,3.00796 c 0.41918,-0.26512 0.87482,-0.24805 1.22919,0.046 1.1711,0.97193 1.51132,-0.16515 1.51132,-5.05107 0,-5.30458 -0.19794,-6.36932 -1.18413,-6.36932 -0.43302,0 -0.63272,0.56096 -0.63272,1.7774 0,1.77261 -0.004,1.77605 -1.31679,1.28035 -2.7103,-1.02302 -4.67507,1.86314 -3.93907,5.78634 0.43717,2.33029 2.62655,3.60902 4.3322,2.53025 z"
     id="path350"
     inkscape:connector-curvature="0" />
  <path
     style="fill:#ffffff;stroke-width:0.45421246"
     d="m 185.92674,195.44762 c 0,-12.07255 0.15578,-18.1685 0.46429,-18.1685 0.25537,0 2.09039,0.81758 4.07783,1.81685 1.98745,0.99927 3.82247,1.81685 4.07783,1.81685 0.25537,0 0.4643,-0.81758 0.4643,-1.81685 v -1.81685 h 86.30037 86.30036 v 18.1685 c 0,12.10453 -0.15538,18.1685 -0.46555,18.1685 -0.25605,0 -1.84012,-0.68859 -3.52014,-1.53019 -1.68003,-0.84161 -3.51449,-1.67296 -4.07658,-1.84746 -0.94432,-0.29316 -1.02198,-0.17689 -1.02198,1.53019 v 1.84746 h -86.30036 -86.30037 z m 68.93923,10.64824 c 1.01155,-0.70853 1.30641,-2.21018 0.63999,-3.25933 -0.19558,-0.30789 -1.16333,-0.83945 -2.15056,-1.18124 -2.42136,-0.8383 -2.35379,-1.85222 0.13544,-2.03232 1.31436,-0.0951 1.93041,-0.34876 1.93041,-0.79487 0,-1.06657 -3.87284,-0.87028 -4.99634,0.25322 -0.49964,0.49963 -0.90843,1.18334 -0.90843,1.51934 0,0.85338 1.35883,1.98596 2.8202,2.35064 2.93445,0.73229 2.23505,2.83854 -0.78008,2.34925 -1.35451,-0.21981 -1.5859,-0.12898 -1.5859,0.62251 0,0.73322 0.32382,0.87987 1.94289,0.87987 1.06859,0 2.39716,-0.31818 2.95238,-0.70707 z m 10.45612,-0.27513 c 0.11959,-0.63097 -0.14958,-0.71583 -1.63754,-0.51625 -1.50128,0.20136 -1.89725,0.0724 -2.52381,-0.82217 -0.40874,-0.58355 -0.74316,-1.21991 -0.74316,-1.41414 0,-0.19424 1.22638,-0.35315 2.72528,-0.35315 2.56271,0 2.72527,-0.0641 2.72527,-1.07428 0,-1.69181 -1.66053,-3.46785 -3.24231,-3.46785 -1.98162,0 -2.97582,0.69513 -3.57024,2.49626 -1.13728,3.44598 0.882,6.29267 4.28585,6.042 1.2824,-0.0944 1.88078,-0.36345 1.98066,-0.89042 z m 4.99878,-2.18443 c 0.15188,-3.23161 0.66453,-4.21332 2.09359,-4.00913 0.84073,0.12012 0.97391,0.52102 1.17528,3.53778 0.18497,2.77099 0.3746,3.43036 1.02198,3.55345 0.70339,0.13375 0.79487,-0.26717 0.79487,-3.48342 0,-4.5706 -0.37402,-5.02476 -4.09459,-4.97201 l -2.71859,0.0386 v 4.28401 c 0,3.83489 0.0833,4.26814 0.79487,4.13259 0.64126,-0.12215 0.82149,-0.71773 0.93259,-3.08182 z m 14.62418,-2.57077 c 0,-5.3151 -0.049,-5.61791 -0.90842,-5.61791 -0.72486,0 -0.90842,0.30281 -0.90842,1.49854 0,1.44875 -0.0535,1.49229 -1.61001,1.31057 -1.98515,-0.23175 -3.25223,0.7834 -3.65454,2.92792 -0.36056,1.92194 0.047,3.58018 1.15122,4.68445 0.64554,0.64553 1.49191,0.85422 3.39504,0.83712 l 2.53513,-0.0228 z m 19.07693,4.82898 c 0,-0.66618 -0.30281,-0.90843 -1.13553,-0.90843 h -1.13553 v -4.74242 c 0,-2.60834 -0.16157,-4.84228 -0.35905,-4.96433 -0.70426,-0.43526 -3.27465,1.18002 -3.27465,2.05785 0,0.7171 0.15247,0.78608 0.87856,0.39748 0.48321,-0.2586 0.9942,-0.47019 1.13553,-0.47019 0.14133,0 0.25697,1.73736 0.25697,3.8608 0,3.81539 -0.0134,3.86081 -1.13553,3.86081 -0.83272,0 -1.13553,0.24225 -1.13553,0.90843 0,0.81525 0.30281,0.90842 2.95238,0.90842 2.64957,0 2.95238,-0.0932 2.95238,-0.90842 z"
     id="path352"
     inkscape:connector-curvature="0"
     inkscape:export-xdpi="96"
     inkscape:export-ydpi="96" />
</svg>
